PathFileType	4	(X/Y/Z)	c:/Users/goper/Files/vsCode/490R/osim_files/C03/C03_fast_05.trc
DataRate	CameraRate	NumFrames	NumMarkers	Units                	OrigDataRate	OrigDataStartFrame	OrigNumFrames
250.00	250.00	5	36	mm	250.0	1576	2521
                Frame#	Time	LPSIS			LASIS			LTH1			LTH2			LTH3			LTH4			LLFE			LMFE			LSH1			LSH2			LSH3			LSH4			LLMAL			LMMAL			LCAL			LMTP5			LTOE			LMTP1			RPSIS			RASIS			RTH1			RTH2			RTH3			RTH4			RLFE			RMFE			RSH1			RSH2			RSH3			RSH4			RLMAL			RMMAL			RCAL			RMTP1			RTOE			RMTP5		
		X1	Y1	Z1	X2	Y2	Z2	X3	Y3	Z3	X4	Y4	Z4	X5	Y5	Z5	X6	Y6	Z6	X7	Y7	Z7	X8	Y8	Z8	X9	Y9	Z9	X10	Y10	Z10	X11	Y11	Z11	X12	Y12	Z12	X13	Y13	Z13	X14	Y14	Z14	X15	Y15	Z15	X16	Y16	Z16	X17	Y17	Z17	X18	Y18	Z18	X19	Y19	Z19	X20	Y20	Z20	X21	Y21	Z21	X22	Y22	Z22	X23	Y23	Z23	X24	Y24	Z24	X25	Y25	Z25	X26	Y26	Z26	X27	Y27	Z27	X28	Y28	Z28	X29	Y29	Z29	X30	Y30	Z30	X31	Y31	Z31	X32	Y32	Z32	X33	Y33	Z33	X34	Y34	Z34	X35	Y35	Z35	X36	Y36	Z36

1576	6.30000	-1714.29810	1015.50146	289.27295	-1897.96936	967.58838	315.78983	-1886.91370	618.78052	371.49890	-1906.44983	560.96497	356.71631	-1956.77502	641.39874	353.60806	-1967.78772	581.53424	342.24274	-1946.06873	484.62347	335.73563	-1927.93396	482.96530	226.89815	-1897.93909	295.24057	345.63226	-1906.21533	250.00760	337.85727	-1958.19556	304.91360	340.65158	-1958.07422	257.06793	334.41293	-1950.66882	97.72057	303.84116	-1962.61096	110.14386	224.34364	-1884.57178	61.28111	271.50439	-2090.11035	52.58627	306.74194	-2114.68237	73.21506	250.60257	-2089.16919	57.86435	214.23676	-1710.97278	996.28729	177.51740	-1877.10596	947.18744	115.48627	-1724.78174	570.84546	118.39427	-1724.15674	509.13779	128.42409	-1775.28516	568.98352	77.32525	-1782.68066	507.20197	78.93736	-1763.27307	438.42722	90.81615	-1801.33032	441.57205	199.20802	-1567.83557	393.40344	118.53172	-1531.99805	362.50592	123.66151	-1595.66699	343.46259	92.88594	-1558.32935	322.90872	101.24493	-1434.40393	236.86557	136.78960	-1458.52100	222.48866	212.78197	-1387.89038	289.99414	179.90691	-1432.56653	94.51783	226.35513	-1450.76917	70.20609	185.42511	-1394.76941	105.21826	127.86156
1577	6.30400	-1719.94397	1016.00842	289.08911	-1903.57629	968.53082	316.20822	-1889.70068	618.77136	370.57104	-1909.74048	561.26831	357.06760	-1960.55969	641.30133	354.13904	-1971.07971	581.32373	342.79663	-1948.66199	484.43463	336.31647	-1931.48059	483.13055	227.04761	-1899.54150	295.49307	345.58890	-1907.32483	250.13608	337.73773	-1959.77295	304.65866	341.06537	-1959.22253	256.86243	334.46768	-1950.89893	97.75785	303.66284	-1962.91577	110.06918	224.13632	-1884.64526	61.34702	271.46127	-2090.21289	52.48567	306.65897	-2114.79077	72.78570	250.39496	-2089.34058	57.63542	214.11281	-1716.63513	996.53638	177.17693	-1882.81213	947.85278	115.69810	-1735.74243	570.23883	118.52293	-1735.83081	508.48563	128.71440	-1785.90381	569.08966	77.17941	-1794.03040	507.51279	78.90598	-1775.54089	438.52777	90.35086	-1812.91895	442.21939	199.34351	-1580.57202	394.81802	117.94995	-1544.15759	364.33148	122.84389	-1607.68555	344.72736	92.24583	-1570.10767	324.49496	100.54842	-1444.75757	240.76103	136.06470	-1469.36548	225.41483	212.31648	-1400.33813	293.72528	180.17976	-1443.58667	97.22079	224.61565	-1460.63037	73.35732	183.35732	-1404.33130	109.29160	126.59820
1578	6.30800	-1725.25146	1017.18573	288.64642	-1909.35852	969.73236	316.46643	-1893.07275	618.99896	370.67548	-1912.87134	561.41235	357.30258	-1964.10669	641.03992	354.48996	-1975.11609	581.20630	343.64096	-1951.23975	484.23453	336.59436	-1934.66394	483.17740	227.12712	-1900.75427	295.73770	345.25043	-1908.21252	250.35689	337.39124	-1961.02637	304.34702	341.16849	-1960.02063	256.54233	334.54507	-1951.14941	97.82119	303.51852	-1963.28625	110.04288	223.90074	-1884.70020	61.41571	271.45416	-2090.31152	52.37246	306.69745	-2114.94751	72.53197	250.35658	-2089.48511	57.52345	214.09431	-1722.15308	996.82666	176.89372	-1888.37622	948.46393	115.87950	-1746.60657	569.83752	119.06254	-1747.54968	508.11252	128.91479	-1796.96045	569.26868	77.28348	-1805.33081	507.73932	78.63403	-1788.08411	438.85800	90.07948	-1824.57117	442.99716	199.43652	-1592.79272	396.48480	117.04680	-1556.30103	366.82993	121.94653	-1619.81653	346.07990	91.72149	-1581.99231	326.19958	99.98321	-1456.14282	243.86894	135.85124	-1480.14502	228.50642	211.77663	-1412.06738	297.06528	180.55052	-1454.57532	99.77982	222.90128	-1471.06519	76.57411	181.22606	-1414.75562	113.07899	125.15475
1579	6.31200	-1731.12085	1017.99304	288.49448	-1914.55371	970.07758	317.02374	-1896.35327	619.08759	370.69061	-1915.87537	561.51465	357.45404	-1967.40112	640.40875	355.31158	-1977.61755	580.71912	343.68033	-1953.63245	483.95557	336.88556	-1937.68811	483.26083	227.14784	-1901.62134	296.00345	344.75342	-1908.86658	250.56133	336.87155	-1962.03662	304.04089	341.26376	-1960.99915	256.33154	334.55551	-1951.35327	97.82295	303.39603	-1963.63379	109.99179	223.73712	-1884.75244	61.49096	271.41919	-2090.43018	52.28117	306.73959	-2115.09839	72.34573	250.37267	-2089.62061	57.46099	214.05849	-1727.59644	997.15234	176.77405	-1893.98230	949.25360	116.04359	-1757.23840	569.82410	118.78215	-1759.31555	507.96890	129.20375	-1807.50830	569.72028	77.16992	-1816.93628	508.45035	78.74690	-1800.50720	439.29706	89.82993	-1836.20068	443.91577	199.65950	-1605.09900	398.28812	116.34949	-1568.43408	368.74814	121.21680	-1632.05420	347.52335	91.53336	-1593.89282	327.98697	99.42975	-1467.06396	247.24309	135.52469	-1491.11133	231.37354	211.31212	-1423.12585	299.91882	181.01218	-1466.25061	102.40613	220.94458	-1482.51343	79.24681	178.77263	-1425.91431	116.52240	123.74669
1580	6.31600	-1736.95251	1018.42920	288.64539	-1920.32837	971.22589	317.26071	-1899.66589	619.24335	370.70905	-1919.15552	561.58740	358.34036	-1971.06763	640.29767	355.04788	-1980.67700	580.18951	343.91312	-1955.89966	483.69473	337.04660	-1940.48206	483.26004	227.14055	-1902.53076	296.14371	344.15753	-1909.32263	250.77690	336.38980	-1962.90332	303.80499	341.32718	-1961.54065	256.13550	334.59085	-1951.58215	97.88316	303.28018	-1963.93982	109.97411	223.57840	-1884.82471	61.53357	271.40933	-2090.51880	52.16679	306.78207	-2115.21387	72.13185	250.37517	-2089.71899	57.39593	213.98384	-1733.17175	997.56714	176.72392	-1899.51489	950.10822	116.20256	-1768.33508	569.68951	119.49758	-1770.96191	508.08667	129.55920	-1818.24084	570.30658	77.17716	-1828.24500	509.13293	78.63027	-1812.96985	439.86734	89.64445	-1846.92700	444.88818	200.32332	-1617.43469	400.17538	115.66676	-1580.81873	370.68304	120.69858	-1643.73608	349.22174	90.84504	-1605.86511	329.85852	99.05777	-1478.12683	250.31332	135.18335	-1502.44861	233.99232	210.92229	-1433.72314	302.32642	181.45036	-1478.22607	104.64272	219.11482	-1495.13904	82.34505	177.17760	-1437.50964	119.65271	122.08098
